<svg xmlns="http://www.w3.org/2000/svg" viewBox="0 0 320 120" width="100%" height="100%">
  <g fill="none" stroke="#5CFF72" stroke-linecap="round" stroke-linejoin="round">
    <!-- Tag Text "STREET" -->
    <path d="M 30 50 C 15 35, 60 25, 45 55 C 35 75, 10 70, 35 90 C 50 100, 65 85, 55 75" stroke-width="6"/>
    <path d="M 70 30 L 105 30 M 87 30 L 87 90" stroke-width="6"/>
    <path d="M 115 35 L 115 90 M 115 35 Q 145 35, 140 60 Q 135 85, 115 85 M 130 65 L 148 90" stroke-width="6"/>
    <path d="M 160 35 L 190 35 M 160 60 L 185 60 M 160 88 L 190 88 M 160 35 L 160 88" stroke-width="6"/>
    <path d="M 200 35 L 230 35 M 200 60 L 225 60 M 200 88 L 230 88 M 200 35 L 200 88" stroke-width="6"/>
    <path d="M 240 30 L 275 30 M 257 30 L 257 90" stroke-width="6"/>
    
    <!-- Underline & Drip accent -->
    <path d="M 20 105 Q 150 115, 290 98" stroke-width="7" stroke-dasharray="1 2"/>
    <circle cx="295" cy="97" r="3" fill="#5CFF72" stroke="none"/>
    <circle cx="20" cy="40" r="2" fill="#5CFF72" stroke="none"/>
  </g>
</svg>

