<svg xmlns="http://www.w3.org/2000/svg" viewBox="0 0 200 200" width="100%" height="100%">
  <g fill="#5CFF72">
    <!-- Central Splash Blob -->
    <path d="M 100 60 C 120 40, 140 65, 145 80 C 165 75, 175 100, 155 115 C 170 135, 140 155, 120 145 C 105 165, 75 155, 70 135 C 45 140, 35 115, 55 95 C 40 80, 65 55, 85 70 Z"/>
    
    <!-- Flying Paint Droplets -->
    <circle cx="165" cy="50" r="5" />
    <circle cx="180" cy="65" r="3" />
    <circle cx="150" cy="35" r="2.5" />
    
    <circle cx="40" cy="60" r="4.5" />
    <circle cx="25" cy="80" r="3" />
    
    <circle cx="175" cy="140" r="6" />
    <circle cx="190" cy="155" r="2" />
    
    <circle cx="45" cy="155" r="5" />
    <circle cx="30" cy="140" r="2.5" />
    <circle cx="60" cy="175" r="4" />
    
    <circle cx="110" cy="25" r="4" />
    <circle cx="100" cy="178" r="3.5" />
  </g>
</svg>
