<svg xmlns="http://www.w3.org/2000/svg" viewBox="0 0 300 120" width="100%" height="100%">
  <path d="
    M 0 0 
    L 300 0 
    L 300 20 
    Q 285 22, 280 45 
    Q 275 70, 270 40 
    Q 265 15, 240 25 
    Q 225 30, 220 75 
    Q 215 110, 210 70 
    Q 205 20, 180 20 
    Q 160 20, 155 55 
    Q 150 85, 145 50 
    Q 140 15, 110 25 
    Q 90 30, 85 90 
    Q 80 115, 75 80 
    Q 70 20, 45 30 
    Q 25 35, 20 60 
    Q 15 80, 10 50 
    Q 5 20, 0 20 
    Z" 
    fill="#FF7A00"/>
    
  <!-- Separate Hanging Drip Beads -->
  <circle cx="210" cy="116" r="3" fill="#FF7A00" />
  <circle cx="75" cy="122" r="3.5" fill="#FF7A00" />
  <circle cx="155" cy="96" r="2.5" fill="#FF7A00" />
  <circle cx="280" cy="82" r="2" fill="#FF7A00" />
</svg>
